/* XPM */
static char * mascara_xpm[] = {
"16 16 4 1",
".	s None	c None",
"o	c brown",
"O	c #F0F003039898",
"g      c gray",
"................",
"................",
"................",
"................",
".......oo....g..",
".....oooooo.g...",
"...oooOoOOgoo...",
".ooooOOoOOgoooo.",
"...oooOoOOooo...",
".....oooooo.....",
".......oo.......",
"................",
"................",
"................",
"................",
"................"};
