/* XPM */
static char * mascara_xpm[] = {
"16 16 4 1",
".	s None	c None",
"o	c brown",
"O	c #F0F003039898",
"g      c gray",
"........o.......",
"........o.......",
".......ooo......",
".......ooo......",
"......ooOoo.....",
"......oOOOo.....",
".....ooOOOoo....",
".....oooooog....",
".....ooOOOgo....",
"......oOOgo.....",
"......oogoo.....",
".......ooo......",
".......ooo......",
"........o.......",
"....... o.......",
"................"};
