/* XPM */
static char * explosão_xpm[] = {
"16 16 15 1",
" 	c #FFFFFF",
".	s None	c None",
"+	c #DFDFDF",
"@	c #D0D0D0",
"#	c #C7C7C7",
"$	c #AFAFAF",
"%	c #A3A3A3",
"&	c #B9B9B9",
"*	c #868686",
"=	c #7E7E7E",
"-	c #705656",
";	c #6D4242",
">	c #752E2E",
",	c #7F1E1E",
"'	c #921010",
"................",
"................",
"................",
".....#$%%$#.....",
"....&%*==*%&....",
"...#%=-;;-=%#...",
"...$*->,,>-*$...",
"...%=;,'',;=%...",
"...%=;,'',;=%...",
"...$*->,,>-*$...",
"...#%=-;;-=%#...",
"....&%*==*%&....",
".....#$%%$#.....",
"................",
"................",
"................"};
